<?xml version="1.0" encoding="utf-8"?>
<!-- Generator: Adobe Illustrator 27.3.1, SVG Export Plug-In . SVG Version: 6.00 Build 0)  -->
<svg version="1.1" id="Layer_1" xmlns="http://www.w3.org/2000/svg" xmlns:xlink="http://www.w3.org/1999/xlink" x="0px" y="0px"
	 viewBox="0 0 32 16" style="enable-background:new 0 0 32 16;" xml:space="preserve">
<style type="text/css">
	.st0{fill:#DB711B;}
</style>
<g>
	<path class="st0" d="M14.4,1.5c-0.6-0.2-1.2-0.3-1.9-0.3c-3.7,0-6.7,3-6.7,6.7s3,6.7,6.7,6.7c0.6,0,1.3-0.1,1.9-0.3
		c1.2,0.8,2.6,1.2,4.1,1.2c4.2,0,7.7-3.4,7.7-7.7c0-4.2-3.4-7.7-7.7-7.7C17,0.3,15.6,0.8,14.4,1.5z M24.5,8c0,3.3-2.7,6-6,6
		c-0.8,0-1.5-0.2-2.2-0.4c0.5-0.4,1-0.8,1.4-1.3s0.3-0.5,0.5-1.1c-0.1,0-0.3-0.1-0.4-0.1c-0.5,0-0.9-0.1-1.3-0.3
		c-0.2,0.5-0.1,0.4-0.4,0.8c-0.4,0.4-0.9,0.8-1.4,1c-0.6,0.3-1.3,0.4-2,0.5c-0.1,0-0.1,0-0.2,0c-2.8,0-5-2.3-5-5c0-2.8,2.3-5,5-5
		c0.1,0,0.1,0,0.2,0c-0.5,0.5-0.9,1.2-1.2,1.8C11.7,5,12,5.2,12.4,5.2c0.3,0,0.6,0.2,1.2-0.4c0.3-0.5,0.7-1,1.2-1.4s1-0.7,1.6-1
		C17,2.2,17.8,2,18.6,2C21.9,2,24.5,4.7,24.5,8z"/>
	<path class="st0" d="M17.8,3.8c-0.6,0.1-1.1,0.3-1.6,0.7c-0.5,0.3-0.9,0.7-1.2,1.2c-0.4-0.4-0.9-0.7-1.4-0.9
		c-0.3-0.1-0.6-0.1-1-0.1c-0.3,0-0.7,0.1-1,0.1C10.2,5.2,9.2,6.5,9.2,8s1,2.8,2.4,3.2c0.3,0.1,0.6,0.1,1,0.1c0.3,0,0.7-0.1,1-0.1
		c0.6-0.2,1-0.5,1.4-0.9c0.3,0.5,0.7,0.9,1.2,1.2c0.5,0.3,1,0.6,1.6,0.7c0.3,0,0.5,0.1,0.8,0.1c2.4,0,4.3-1.9,4.3-4.3
		S21,3.7,18.6,3.7C18.3,3.7,18,3.7,17.8,3.8z M10.9,8c0-0.9,0.8-1.7,1.7-1.7c0.1,0,0.2,0,0.2,0c0.8,0.1,1.4,0.8,1.4,1.7l0,0
		c0,0.8-0.6,1.6-1.4,1.7c-0.1,0-0.2,0-0.2,0C11.7,9.7,10.9,8.9,10.9,8z M18.7,5.4c1.4,0.1,2.4,1.2,2.4,2.6s-1.1,2.5-2.4,2.6
		c-0.1,0-0.1,0-0.2,0c-0.5,0-1-0.2-1.4-0.4C16.4,9.7,16,8.9,16,8s0.5-1.7,1.2-2.2c0.4-0.3,0.9-0.4,1.4-0.4H18.7z"/>
</g>
</svg>
