<?xml version="1.0" encoding="utf-8"?>
<!-- Generator: Adobe Illustrator 27.3.1, SVG Export Plug-In . SVG Version: 6.00 Build 0)  -->
<svg version="1.1" id="Layer_1" xmlns="http://www.w3.org/2000/svg" xmlns:xlink="http://www.w3.org/1999/xlink" x="0px" y="0px"
	 viewBox="0 0 58 16" style="enable-background:new 0 0 58 16;" xml:space="preserve">
<style type="text/css">
	.st0{fill:#121266;}
	.st1{fill:#DB711B;}
</style>
<g>
	<g>
		<g>
			<path class="st0" d="M5.2,3.8v2h1.5v1.4H5.2v4.6c0,0.3,0.1,0.5,0.2,0.7c0.1,0.1,0.3,0.2,0.7,0.2c0.2,0,0.4,0,0.7-0.1v1.4
				c-0.4,0.1-0.8,0.2-1.2,0.2c-1.4,0-2.1-0.8-2.1-2.4V7.2H2V5.8h1.4v-2H5.2z"/>
			<path class="st0" d="M13.6,14.1c-0.1-0.2-0.2-0.4-0.2-0.8c-0.6,0.6-1.3,0.9-2.2,0.9c-0.8,0-1.5-0.2-2-0.7
				c-0.5-0.5-0.8-1.1-0.8-1.8c0-0.9,0.3-1.6,1-2s1.6-0.7,2.8-0.7h1.1V8.5c0-0.4-0.1-0.8-0.4-1c-0.2-0.3-0.6-0.4-1.1-0.4
				c-0.4,0-0.8,0.1-1,0.3c-0.3,0.2-0.4,0.5-0.4,0.8H8.5c0-0.5,0.2-0.9,0.5-1.3S9.7,6.2,10.2,6c0.5-0.2,1.1-0.3,1.7-0.3
				c1,0,1.7,0.2,2.3,0.7c0.6,0.5,0.9,1.2,0.9,2.1v3.7c0,0.7,0.1,1.3,0.3,1.8v0.1H13.6z M11.5,12.8c0.4,0,0.7-0.1,1-0.3
				c0.3-0.2,0.6-0.4,0.7-0.7v-1.6h-1c-0.7,0-1.2,0.1-1.6,0.4c-0.3,0.2-0.5,0.6-0.5,1c0,0.4,0.1,0.6,0.4,0.9
				C10.8,12.7,11.1,12.8,11.5,12.8z"/>
			<path class="st0" d="M22.2,11.9c0-0.3-0.1-0.6-0.4-0.8c-0.3-0.2-0.7-0.3-1.4-0.5c-0.6-0.1-1.2-0.3-1.6-0.5
				c-0.9-0.4-1.4-1.1-1.4-2c0-0.7,0.3-1.3,0.9-1.8s1.4-0.7,2.3-0.7c1,0,1.8,0.2,2.4,0.7S24,7.5,24,8.3h-1.9c0-0.4-0.1-0.7-0.4-0.9
				c-0.3-0.2-0.6-0.4-1.1-0.4c-0.4,0-0.7,0.1-1,0.3c-0.3,0.2-0.4,0.4-0.4,0.8c0,0.3,0.1,0.5,0.4,0.7c0.2,0.2,0.7,0.3,1.5,0.5
				c0.7,0.2,1.3,0.4,1.7,0.6c0.4,0.2,0.7,0.5,0.9,0.8c0.2,0.3,0.3,0.7,0.3,1.1c0,0.7-0.3,1.3-0.9,1.8s-1.4,0.7-2.4,0.7
				c-0.7,0-1.3-0.1-1.8-0.4c-0.5-0.2-0.9-0.6-1.2-1c-0.3-0.4-0.4-0.9-0.4-1.4H19c0,0.4,0.2,0.8,0.5,1c0.3,0.2,0.7,0.4,1.2,0.4
				c0.5,0,0.9-0.1,1.1-0.3C22.1,12.4,22.2,12.2,22.2,11.9z"/>
			<path class="st0" d="M28.9,10.6l-0.8,0.8v2.7h-1.9V2.4h1.9v6.8l0.6-0.7l2.3-2.6h2.2l-3.1,3.5l3.4,4.8h-2.2L28.9,10.6z"/>
			<path class="st0" d="M38.4,14.3c-1.2,0-2.1-0.4-2.9-1.1c-0.7-0.7-1.1-1.7-1.1-3V10c0-0.8,0.2-1.6,0.5-2.2
				c0.3-0.7,0.8-1.2,1.3-1.5c0.6-0.4,1.2-0.5,1.9-0.5c1.1,0,2,0.4,2.6,1.1s0.9,1.7,0.9,3.1v0.8h-5.4c0.1,0.7,0.3,1.2,0.7,1.6
				s0.9,0.6,1.5,0.6c0.9,0,1.5-0.3,2.1-1l1,1c-0.3,0.5-0.8,0.9-1.3,1.2S39.1,14.3,38.4,14.3z M38.1,7.2c-0.5,0-0.9,0.2-1.2,0.5
				s-0.5,0.9-0.6,1.5h3.5V9.1c0-0.6-0.2-1.1-0.5-1.4C39.1,7.3,38.7,7.2,38.1,7.2z"/>
			<path class="st0" d="M48,7.5c-0.2,0-0.5-0.1-0.8-0.1c-0.9,0-1.4,0.3-1.7,1v5.7h-1.9V5.8h1.8l0,0.9c0.4-0.7,1.1-1.1,1.9-1.1
				c0.3,0,0.5,0,0.7,0.1L48,7.5z"/>
		</g>
	</g>
	<path class="st1" d="M56.9,10.4c-0.1-0.5-0.3-0.9-0.6-1.3c-0.3-0.4-0.6-0.7-1-1c0.3-0.3,0.6-0.7,0.7-1.2c0.1-0.3,0.1-0.5,0.1-0.8
		c0-0.3,0-0.6-0.1-0.8c-0.3-1.2-1.4-2-2.7-2s-2.3,0.8-2.7,2c-0.1,0.3-0.1,0.5-0.1,0.8c0,0.3,0,0.6,0.1,0.8c0.1,0.5,0.4,0.9,0.7,1.2
		c-0.4,0.3-0.8,0.6-1,1c-0.3,0.4-0.5,0.9-0.6,1.3c0,0.2-0.1,0.4-0.1,0.7c0,2,1.6,3.6,3.6,3.6c2,0,3.6-1.6,3.6-3.6
		C57,10.8,57,10.6,56.9,10.4z M53.4,4.7c0.8,0,1.4,0.6,1.4,1.4c0,0.1,0,0.1,0,0.2c-0.1,0.7-0.7,1.2-1.4,1.2h0
		c-0.7,0-1.3-0.5-1.4-1.2c0-0.1,0-0.1,0-0.2C52,5.3,52.6,4.7,53.4,4.7z M55.6,11.2c-0.1,1.1-1,2-2.2,2s-2.1-0.9-2.2-2
		c0,0,0-0.1,0-0.1c0-0.4,0.1-0.9,0.4-1.2c0.4-0.6,1.1-1,1.8-1c0.8,0,1.4,0.4,1.8,1c0.2,0.3,0.4,0.8,0.4,1.2
		C55.6,11.1,55.6,11.2,55.6,11.2z"/>
</g>
</svg>
