<?xml version="1.0" encoding="utf-8"?>
<!-- Generator: Adobe Illustrator 27.3.1, SVG Export Plug-In . SVG Version: 6.00 Build 0)  -->
<svg version="1.1" id="Layer_1" xmlns="http://www.w3.org/2000/svg" xmlns:xlink="http://www.w3.org/1999/xlink" x="0px" y="0px"
	 viewBox="0 0 58 16" style="enable-background:new 0 0 58 16;" xml:space="preserve">
<style type="text/css">
	.st0{fill:#FFFFFF;}
	.st1{fill:#DB711B;}
</style>
<g>
	<defs>
		<rect id="SVGID_1_" width="58" height="16"/>
	</defs>
	<clipPath id="SVGID_00000059277098583863377560000002475725254552961709_">
		<use xlink:href="#SVGID_1_"  style="overflow:visible;"/>
	</clipPath>
</g>
<g>
	<g>
		<g>
			<path class="st0" d="M4.7,3.3v2h1.5v1.4H4.7v4.6c0,0.3,0.1,0.5,0.2,0.7c0.1,0.1,0.3,0.2,0.7,0.2c0.2,0,0.4,0,0.7-0.1v1.4
				c-0.4,0.1-0.8,0.2-1.2,0.2c-1.4,0-2.1-0.8-2.1-2.4V6.7H1.5V5.3h1.4v-2H4.7z"/>
			<path class="st0" d="M13.1,13.6c-0.1-0.2-0.2-0.4-0.2-0.8c-0.6,0.6-1.3,0.9-2.2,0.9c-0.8,0-1.5-0.2-2-0.7
				c-0.5-0.5-0.8-1.1-0.8-1.8c0-0.9,0.3-1.6,1-2s1.6-0.7,2.8-0.7h1.1V8c0-0.4-0.1-0.8-0.4-1c-0.2-0.3-0.6-0.4-1.1-0.4
				c-0.4,0-0.8,0.1-1,0.3C10,7.1,9.9,7.4,9.9,7.7H8c0-0.5,0.2-0.9,0.5-1.3s0.7-0.7,1.2-0.9c0.5-0.2,1.1-0.3,1.7-0.3
				c1,0,1.7,0.2,2.3,0.7c0.6,0.5,0.9,1.2,0.9,2.1v3.7c0,0.7,0.1,1.3,0.3,1.8v0.1H13.1z M11,12.3c0.4,0,0.7-0.1,1-0.3
				c0.3-0.2,0.6-0.4,0.7-0.7V9.7h-1c-0.7,0-1.2,0.1-1.6,0.4c-0.3,0.2-0.5,0.6-0.5,1c0,0.4,0.1,0.6,0.4,0.9
				C10.3,12.2,10.6,12.3,11,12.3z"/>
			<path class="st0" d="M21.7,11.4c0-0.3-0.1-0.6-0.4-0.8c-0.3-0.2-0.7-0.3-1.4-0.5c-0.6-0.1-1.2-0.3-1.6-0.5
				c-0.9-0.4-1.4-1.1-1.4-2c0-0.7,0.3-1.3,0.9-1.8s1.4-0.7,2.3-0.7c1,0,1.8,0.2,2.4,0.7s0.9,1.1,0.9,1.9h-1.9c0-0.4-0.1-0.7-0.4-0.9
				c-0.3-0.2-0.6-0.4-1.1-0.4c-0.4,0-0.7,0.1-1,0.3c-0.3,0.2-0.4,0.4-0.4,0.8c0,0.3,0.1,0.5,0.4,0.7c0.2,0.2,0.7,0.3,1.5,0.5
				c0.7,0.2,1.3,0.4,1.7,0.6c0.4,0.2,0.7,0.5,0.9,0.8c0.2,0.3,0.3,0.7,0.3,1.1c0,0.7-0.3,1.3-0.9,1.8s-1.4,0.7-2.4,0.7
				c-0.7,0-1.3-0.1-1.8-0.4c-0.5-0.2-0.9-0.6-1.2-1c-0.3-0.4-0.4-0.9-0.4-1.4h1.8c0,0.4,0.2,0.8,0.5,1c0.3,0.2,0.7,0.4,1.2,0.4
				c0.5,0,0.9-0.1,1.1-0.3C21.6,11.9,21.7,11.7,21.7,11.4z"/>
			<path class="st0" d="M28.4,10.1l-0.8,0.8v2.7h-1.9V1.9h1.9v6.8l0.6-0.7l2.3-2.6h2.2l-3.1,3.5l3.4,4.8h-2.2L28.4,10.1z"/>
			<path class="st0" d="M37.9,13.8c-1.2,0-2.1-0.4-2.9-1.1c-0.7-0.7-1.1-1.7-1.1-3V9.5c0-0.8,0.2-1.6,0.5-2.2
				c0.3-0.7,0.8-1.2,1.3-1.5c0.6-0.4,1.2-0.5,1.9-0.5c1.1,0,2,0.4,2.6,1.1s0.9,1.7,0.9,3.1v0.8h-5.4c0.1,0.7,0.3,1.2,0.7,1.6
				s0.9,0.6,1.5,0.6c0.9,0,1.5-0.3,2.1-1l1,1c-0.3,0.5-0.8,0.9-1.3,1.2S38.6,13.8,37.9,13.8z M37.6,6.7c-0.5,0-0.9,0.2-1.2,0.5
				s-0.5,0.9-0.6,1.5h3.5V8.6c0-0.6-0.2-1.1-0.5-1.4C38.6,6.8,38.2,6.7,37.6,6.7z"/>
			<path class="st0" d="M47.5,7C47.2,7,47,7,46.7,7c-0.9,0-1.4,0.3-1.7,1v5.7h-1.9V5.3h1.8l0,0.9c0.4-0.7,1.1-1.1,1.9-1.1
				c0.3,0,0.5,0,0.7,0.1L47.5,7z"/>
		</g>
	</g>
	<path class="st1" d="M56.4,9.9c-0.1-0.5-0.3-0.9-0.6-1.3c-0.3-0.4-0.6-0.7-1-1c0.3-0.3,0.6-0.7,0.7-1.2c0.1-0.3,0.1-0.5,0.1-0.8
		c0-0.3,0-0.6-0.1-0.8c-0.3-1.2-1.4-2-2.7-2s-2.3,0.8-2.7,2c-0.1,0.3-0.1,0.5-0.1,0.8c0,0.3,0,0.6,0.1,0.8c0.1,0.5,0.4,0.9,0.7,1.2
		c-0.4,0.3-0.8,0.6-1,1c-0.3,0.4-0.5,0.9-0.6,1.3c0,0.2-0.1,0.4-0.1,0.7c0,2,1.6,3.6,3.6,3.6c2,0,3.6-1.6,3.6-3.6
		C56.5,10.3,56.5,10.1,56.4,9.9z M52.9,4.2c0.8,0,1.4,0.6,1.4,1.4c0,0.1,0,0.1,0,0.2C54.2,6.4,53.6,7,52.9,7h0
		c-0.7,0-1.3-0.5-1.4-1.2c0-0.1,0-0.1,0-0.2C51.5,4.8,52.1,4.2,52.9,4.2z M55.1,10.7c-0.1,1.1-1,2-2.2,2s-2.1-0.9-2.2-2
		c0,0,0-0.1,0-0.1c0-0.4,0.1-0.9,0.4-1.2c0.4-0.6,1.1-1,1.8-1c0.8,0,1.4,0.4,1.8,1c0.2,0.3,0.4,0.8,0.4,1.2
		C55.1,10.6,55.1,10.7,55.1,10.7z"/>
</g>
</svg>
