<?xml version="1.0" encoding="utf-8"?>
<!-- Generator: Adobe Illustrator 27.3.1, SVG Export Plug-In . SVG Version: 6.00 Build 0)  -->
<svg version="1.1" id="Layer_1" xmlns="http://www.w3.org/2000/svg" xmlns:xlink="http://www.w3.org/1999/xlink" x="0px" y="0px"
	 viewBox="0 0 201 40" style="enable-background:new 0 0 201 40;" xml:space="preserve">
<style type="text/css">
	.st0{clip-path:url(#SVGID_00000123432121135696190220000003453564519414711189_);}
	.st1{fill:#DB711B;}
	.st2{fill:#FFFFFF;}
</style>
<g>
	<defs>
		<rect id="SVGID_1_" width="201" height="40"/>
	</defs>
	<clipPath id="SVGID_00000026140453282546268980000000231049730764612230_">
		<use xlink:href="#SVGID_1_"  style="overflow:visible;"/>
	</clipPath>
	<g style="clip-path:url(#SVGID_00000026140453282546268980000000231049730764612230_);">
		<path class="st1" d="M198,12.5h-41c-1.7,0-3,1.3-3,3v13c0,1.7,1.3,3,3,3h41c1.7,0,3-1.3,3-3v-13C201,13.8,199.7,12.5,198,12.5"/>
		<path class="st2" d="M164.5,21.3c0.7,0.3,1.6,0.9,1.6,2.5c0,1.7-1.2,2.7-3.2,2.7h-4v-9.8h4c1.9,0,2.9,1,2.9,2.5
			C165.9,20.3,165.2,20.9,164.5,21.3L164.5,21.3z M160.8,18.2v2.5h1.9c0.8,0,1.3-0.5,1.3-1.3c0-0.8-0.5-1.3-1.3-1.3H160.8z
			 M162.8,25c1,0,1.4-0.6,1.4-1.4c0-0.8-0.5-1.4-1.4-1.4h-2V25H162.8z M171,24.9h4.9v1.6h-6.7v-9.8h6.6v1.6H171v2.4h4.1v1.6H171
			V24.9z M185.6,16.7v1.7h-2.8v8.1H181v-8.1h-2.8v-1.7H185.6z M193.8,26.5l-0.8-2.4h-3.7l-0.8,2.4h-2l3.5-9.8h2.2l3.5,9.8H193.8z
			 M189.8,22.6h2.7l-1.3-3.8h-0.1L189.8,22.6z"/>
	</g>
</g>
<g>
	<g>
		<g>
			<path class="st2" d="M12.2,8.2v5.1h3.7v3.5h-3.7v11.7c0,0.8,0.2,1.4,0.5,1.7c0.3,0.4,0.9,0.5,1.7,0.5c0.5,0,1.1-0.1,1.6-0.2v3.6
				c-1.1,0.3-2.1,0.4-3.1,0.4c-3.6,0-5.4-2-5.4-6V16.7H4v-3.5h3.4V8.2H12.2z"/>
			<path class="st2" d="M33.3,34.2c-0.2-0.4-0.4-1.1-0.5-2c-1.5,1.6-3.3,2.3-5.5,2.3c-2.1,0-3.8-0.6-5.2-1.8c-1.3-1.2-2-2.7-2-4.5
				c0-2.2,0.8-4,2.5-5.1s4-1.8,7.1-1.8h2.9V20c0-1.1-0.3-2-0.9-2.6s-1.5-1-2.8-1c-1.1,0-2,0.3-2.6,0.8c-0.7,0.5-1,1.2-1,2h-4.7
				c0-1.1,0.4-2.2,1.1-3.2s1.8-1.8,3.1-2.4s2.8-0.9,4.4-0.9c2.5,0,4.4,0.6,5.9,1.9c1.5,1.2,2.2,3,2.2,5.2v9.5c0,1.9,0.3,3.4,0.8,4.5
				v0.3H33.3z M28.1,30.8c0.9,0,1.8-0.2,2.6-0.7c0.8-0.5,1.4-1.1,1.9-1.8v-4h-2.5c-1.7,0-3.1,0.3-3.9,0.9s-1.3,1.5-1.3,2.6
				c0,0.9,0.3,1.6,0.9,2.2C26.3,30.6,27.1,30.8,28.1,30.8z"/>
			<path class="st2" d="M55.3,28.5c0-0.8-0.3-1.5-1-1.9c-0.7-0.4-1.8-0.8-3.4-1.2c-1.6-0.3-2.9-0.8-4-1.3c-2.4-1.1-3.5-2.8-3.5-4.9
				c0-1.8,0.8-3.3,2.3-4.5c1.5-1.2,3.5-1.8,5.8-1.8c2.5,0,4.5,0.6,6.1,1.9c1.5,1.2,2.3,2.8,2.3,4.8H55c0-0.9-0.3-1.7-1-2.3
				c-0.7-0.6-1.6-0.9-2.7-0.9c-1,0-1.9,0.2-2.5,0.7c-0.7,0.5-1,1.1-1,1.9c0,0.7,0.3,1.3,0.9,1.7s1.8,0.8,3.7,1.2s3.3,0.9,4.4,1.5
				c1.1,0.6,1.8,1.2,2.3,2c0.5,0.8,0.8,1.7,0.8,2.9c0,1.9-0.8,3.4-2.3,4.6c-1.6,1.2-3.6,1.8-6.1,1.8c-1.7,0-3.2-0.3-4.6-0.9
				c-1.3-0.6-2.4-1.5-3.1-2.6s-1.1-2.3-1.1-3.5h4.6c0.1,1.1,0.5,2,1.3,2.6c0.8,0.6,1.8,0.9,3.1,0.9c1.2,0,2.2-0.2,2.8-0.7
				C54.9,29.9,55.3,29.3,55.3,28.5z"/>
			<path class="st2" d="M72.1,25.2L70,27.4v6.8h-4.7V4.5H70v17.2l1.5-1.8l5.8-6.5h5.7L75.1,22l8.6,12.2h-5.4L72.1,25.2z"/>
			<path class="st2" d="M96.1,34.6c-3,0-5.4-0.9-7.3-2.8c-1.9-1.9-2.8-4.4-2.8-7.5v-0.6c0-2.1,0.4-4,1.2-5.6
				c0.8-1.6,1.9-2.9,3.4-3.8c1.5-0.9,3.1-1.4,4.9-1.4c2.9,0,5.1,0.9,6.6,2.7c1.6,1.8,2.3,4.4,2.3,7.7v1.9H90.8
				c0.1,1.7,0.7,3.1,1.7,4.1c1,1,2.3,1.5,3.8,1.5c2.2,0,3.9-0.9,5.3-2.6l2.5,2.4c-0.8,1.3-2,2.2-3.4,2.9
				C99.4,34.3,97.8,34.6,96.1,34.6z M95.5,16.6c-1.3,0-2.3,0.5-3.1,1.4c-0.8,0.9-1.3,2.2-1.5,3.8h9v-0.3c-0.1-1.6-0.5-2.8-1.3-3.6
				C97.9,17,96.8,16.6,95.5,16.6z"/>
			<path class="st2" d="M120.4,17.6c-0.6-0.1-1.3-0.2-1.9-0.2c-2.2,0-3.6,0.8-4.4,2.5v14.3h-4.7v-21h4.5l0.1,2.3
				c1.1-1.8,2.7-2.7,4.7-2.7c0.7,0,1.2,0.1,1.7,0.3L120.4,17.6z"/>
		</g>
	</g>
	<path class="st1" d="M143.1,24.8c-0.2-1.2-0.7-2.4-1.4-3.4c-0.7-1-1.6-1.9-2.6-2.5c0.9-0.8,1.5-1.9,1.9-3c0.2-0.7,0.3-1.4,0.3-2.1
		c0-0.7-0.1-1.4-0.3-2.1c-0.9-2.9-3.6-5.1-6.8-5.1s-5.9,2.1-6.8,5.1c-0.2,0.6-0.3,1.3-0.3,2.1c0,0.7,0.1,1.4,0.3,2.1
		c0.4,1.2,1,2.2,1.9,3c-1,0.7-1.9,1.5-2.6,2.5c-0.7,1-1.2,2.2-1.4,3.4c-0.1,0.5-0.2,1.1-0.2,1.7c0,5,4.1,9.1,9.1,9.1
		c5,0,9.1-4.1,9.1-9.1C143.2,25.9,143.2,25.3,143.1,24.8z M134.2,10.3c2,0,3.6,1.6,3.6,3.6c0,0.2,0,0.3,0,0.5
		c-0.2,1.7-1.7,3.1-3.5,3.1h0c-1.8,0-3.3-1.3-3.5-3.1c0-0.2,0-0.3,0-0.5C130.6,11.9,132.2,10.3,134.2,10.3z M139.7,26.8
		c-0.2,2.9-2.6,5.2-5.5,5.2c-2.9,0-5.3-2.3-5.5-5.2c0-0.1,0-0.2,0-0.4c0-1.1,0.3-2.2,0.9-3c1-1.5,2.7-2.5,4.6-2.5
		c1.9,0,3.6,1,4.6,2.5c0.6,0.9,0.9,1.9,0.9,3C139.7,26.6,139.7,26.7,139.7,26.8z"/>
</g>
</svg>
