<?xml version="1.0" encoding="utf-8"?>
<!-- Generator: Adobe Illustrator 27.3.1, SVG Export Plug-In . SVG Version: 6.00 Build 0)  -->
<svg version="1.1" id="Layer_1" xmlns="http://www.w3.org/2000/svg" xmlns:xlink="http://www.w3.org/1999/xlink" x="0px" y="0px"
	 viewBox="0 0 230 40" style="enable-background:new 0 0 230 40;" xml:space="preserve">
<style type="text/css">
	.st0{fill:#DB711B;}
	.st1{fill:#FFFFFF;}
</style>
<path class="st0" d="M214.9,12.5h-56.7c-2.3,0-4.1,1.9-4.1,4.1v10.7c0,2.3,1.9,4.1,4.1,4.1h56.7c2.3,0,4.1-1.9,4.1-4.1V16.6
	C219,14.4,217.1,12.5,214.9,12.5"/>
<path class="st1" d="M163,26.3l-2.5-7.6c0,0.3,0.1,0.6,0.1,1c0.1,0.4,0.1,0.9,0.1,1.4c0,0.5,0.1,1.1,0.1,1.6v3.6h-1.9v-9.5h2.8
	l2.4,7.6c-0.1-0.6-0.2-1.1-0.2-1.7c-0.1-0.8-0.1-1.5-0.1-2.3v-3.6h1.9v9.5L163,26.3z M173.6,16.8v1.6h-2v6.2h2v1.6h-6.2v-1.6h2v-6.2
	h-2v-1.6L173.6,16.8z M179.1,26.5c-1.3,0-2.4-0.4-3.1-1.3c-0.7-0.9-1.1-2.1-1.1-3.7c0-1.1,0.2-2,0.6-2.7c0.4-0.7,0.9-1.3,1.6-1.7
	c0.7-0.4,1.4-0.6,2.2-0.6c0.7,0,1.3,0.1,1.8,0.3c0.5,0.2,0.9,0.5,1.3,0.8l-1.2,1.2c-0.2-0.2-0.5-0.4-0.8-0.6
	c-0.3-0.1-0.6-0.2-0.9-0.2c-0.4,0-0.8,0.1-1.1,0.3c-0.3,0.2-0.6,0.6-0.8,1.1c-0.2,0.5-0.3,1.1-0.3,1.9c0,0.8,0.1,1.5,0.2,2
	c0.1,0.5,0.3,0.8,0.6,1.1c0.3,0.2,0.6,0.3,1,0.3c0.2,0,0.4,0,0.6-0.1c0.2-0.1,0.4-0.1,0.5-0.2v-2.2h-1.2l-0.2-1.6h3.5v4.7
	c-0.5,0.3-1,0.5-1.5,0.7C180.3,26.5,179.7,26.6,179.1,26.5 M188.1,26.3v-4h-2.3v4h-2.2v-9.5h2.2v3.6h2.3v-3.6h2.2v9.5L188.1,26.3z
	 M196.2,18.6v7.8H194v-7.8h-2.7v-1.7h7.7l-0.2,1.7H196.2z M200.5,26.3v-9.5h2.2v7.7h4.1l-0.2,1.8L200.5,26.3z M212.7,22.8v3.6h-2.2
	v-3.5l-3.1-5.9h2.5l1.8,4.1l1.8-4.1h2.4L212.7,22.8z"/>
<g>
	<g>
		<g>
			<path class="st1" d="M15.8,8.2v5.1h3.7v3.5h-3.7v11.7c0,0.8,0.2,1.4,0.5,1.7c0.3,0.4,0.9,0.5,1.7,0.5c0.5,0,1.1-0.1,1.6-0.2v3.6
				c-1.1,0.3-2.1,0.4-3.1,0.4c-3.6,0-5.4-2-5.4-6V16.7H7.6v-3.5h3.4V8.2H15.8z"/>
			<path class="st1" d="M36.9,34.2c-0.2-0.4-0.4-1.1-0.5-2c-1.5,1.6-3.3,2.3-5.5,2.3c-2.1,0-3.8-0.6-5.2-1.8c-1.3-1.2-2-2.7-2-4.5
				c0-2.2,0.8-4,2.5-5.1s4-1.8,7.1-1.8h2.9V20c0-1.1-0.3-2-0.9-2.6s-1.5-1-2.8-1c-1.1,0-2,0.3-2.6,0.8s-1,1.2-1,2h-4.7
				c0-1.1,0.4-2.2,1.1-3.2s1.8-1.8,3.1-2.4s2.8-0.9,4.4-0.9c2.5,0,4.4,0.6,5.9,1.9s2.2,3,2.2,5.2v9.5c0,1.9,0.3,3.4,0.8,4.5v0.3
				H36.9z M31.7,30.8c0.9,0,1.8-0.2,2.6-0.7c0.8-0.5,1.4-1.1,1.9-1.8v-4h-2.5c-1.7,0-3.1,0.3-3.9,0.9s-1.3,1.5-1.3,2.6
				c0,0.9,0.3,1.6,0.9,2.2S30.7,30.8,31.7,30.8z"/>
			<path class="st1" d="M58.9,28.5c0-0.8-0.3-1.5-1-1.9c-0.7-0.4-1.8-0.8-3.4-1.2s-2.9-0.8-4-1.3c-2.4-1.1-3.5-2.8-3.5-4.9
				c0-1.8,0.8-3.3,2.3-4.5s3.5-1.8,5.8-1.8c2.5,0,4.5,0.6,6.1,1.9c1.5,1.2,2.3,2.8,2.3,4.8h-4.7c0-0.9-0.3-1.7-1-2.3
				c-0.7-0.6-1.6-0.9-2.7-0.9c-1,0-1.9,0.2-2.5,0.7c-0.7,0.5-1,1.1-1,1.9c0,0.7,0.3,1.3,0.9,1.7c0.6,0.4,1.8,0.8,3.7,1.2
				s3.3,0.9,4.4,1.5c1.1,0.6,1.8,1.2,2.3,2c0.5,0.8,0.8,1.7,0.8,2.9c0,1.9-0.8,3.4-2.3,4.6c-1.6,1.2-3.6,1.8-6.1,1.8
				c-1.7,0-3.2-0.3-4.6-0.9c-1.3-0.6-2.4-1.5-3.1-2.6s-1.1-2.3-1.1-3.5h4.6c0.1,1.1,0.5,2,1.3,2.6c0.8,0.6,1.8,0.9,3.1,0.9
				c1.2,0,2.2-0.2,2.8-0.7C58.5,29.9,58.9,29.3,58.9,28.5z"/>
			<path class="st1" d="M75.7,25.2l-2.1,2.2v6.8h-4.7V4.5h4.7v17.2l1.5-1.8l5.8-6.5h5.7L78.7,22l8.6,12.2h-5.4L75.7,25.2z"/>
			<path class="st1" d="M99.7,34.6c-3,0-5.4-0.9-7.3-2.8s-2.8-4.4-2.8-7.5v-0.6c0-2.1,0.4-4,1.2-5.6c0.8-1.6,1.9-2.9,3.4-3.8
				s3.1-1.4,4.9-1.4c2.9,0,5.1,0.9,6.6,2.7s2.3,4.4,2.3,7.7v1.9H94.4c0.1,1.7,0.7,3.1,1.7,4.1s2.3,1.5,3.8,1.5
				c2.2,0,3.9-0.9,5.3-2.6l2.5,2.4c-0.8,1.3-2,2.2-3.4,2.9C103,34.3,101.4,34.6,99.7,34.6z M99.1,16.6c-1.3,0-2.3,0.5-3.1,1.4
				s-1.3,2.2-1.5,3.8h9v-0.3c-0.1-1.6-0.5-2.8-1.3-3.6C101.5,17,100.4,16.6,99.1,16.6z"/>
			<path class="st1" d="M124,17.6c-0.6-0.1-1.3-0.2-1.9-0.2c-2.2,0-3.6,0.8-4.4,2.5v14.3H113v-21h4.5l0.1,2.3
				c1.1-1.8,2.7-2.7,4.7-2.7c0.7,0,1.2,0.1,1.7,0.3L124,17.6z"/>
		</g>
	</g>
	<path class="st0" d="M146.7,24.8c-0.2-1.2-0.7-2.4-1.4-3.4c-0.7-1-1.6-1.9-2.6-2.5c0.9-0.8,1.5-1.9,1.9-3c0.2-0.7,0.3-1.4,0.3-2.1
		c0-0.7-0.1-1.4-0.3-2.1c-0.9-2.9-3.6-5.1-6.8-5.1c-3.2,0-5.9,2.1-6.8,5.1c-0.2,0.6-0.3,1.3-0.3,2.1c0,0.7,0.1,1.4,0.3,2.1
		c0.4,1.2,1,2.2,1.9,3c-1,0.7-1.9,1.5-2.6,2.5c-0.7,1-1.2,2.2-1.4,3.4c-0.1,0.5-0.2,1.1-0.2,1.7c0,5,4.1,9.1,9.1,9.1
		c5,0,9.1-4.1,9.1-9.1C146.8,25.9,146.8,25.3,146.7,24.8z M137.8,10.3c2,0,3.6,1.6,3.6,3.6c0,0.2,0,0.3,0,0.5
		c-0.2,1.7-1.7,3.1-3.5,3.1h0c-1.8,0-3.3-1.3-3.5-3.1c0-0.2,0-0.3,0-0.5C134.2,11.9,135.8,10.3,137.8,10.3z M143.3,26.8
		c-0.2,2.9-2.6,5.2-5.5,5.2c-2.9,0-5.3-2.3-5.5-5.2c0-0.1,0-0.2,0-0.4c0-1.1,0.3-2.2,0.9-3c1-1.5,2.7-2.5,4.6-2.5
		c1.9,0,3.6,1,4.6,2.5c0.6,0.9,0.9,1.9,0.9,3C143.3,26.6,143.3,26.7,143.3,26.8z"/>
</g>
</svg>
